name analog
datacolumns 19
datarows 51
range 0.255 0.28
endheader
time	ground_force_vx	ground_force_vy	ground_force_vz	ground_force_px	ground_force_py	ground_force_pz	l_ground_force_vx	l_ground_force_vy	l_ground_force_vz	l_ground_force_px	l_ground_force_py	l_ground_force_pz	ground_torque_x	ground_torque_y	ground_torque_z	l_ground_torque_x	l_ground_torque_y	l_ground_torque_z
0.255	-0.0	-0.0	-0.0	21.3122501373291	-9.287670135498049	-836.0487060546875	-0.0	-0.0	-0.0	-0.0	-0.0	-0.0	-0.0	-0.0	-0.0	-0.0	-0.0	-0.0
0.2555	-0.0	-0.0	-0.0	22.82863998413086	-10.173189163208008	-839.8863525390625	-0.0	-0.0	-0.0	-0.0	-0.0	-0.0	-0.0	-0.0	-0.0	-0.0	-0.0	-0.0
0.256	-0.0	-0.0	-0.0	23.975500106811523	-11.564845085144045	-842.71240234375	-0.0	-0.0	-0.0	-0.0	-0.0	-0.0	-0.0	-0.0	-0.0	-0.0	-0.0	-0.0
0.2565	-0.0	-0.0	-0.0	23.908416748046875	-11.306641578674316	-842.346923828125	-0.0	-0.0	-0.0	-0.0	-0.0	-0.0	-0.0	-0.0	-0.0	-0.0	-0.0	-0.0
0.257	-0.0	-0.0	-0.0	23.214509963989254	-11.131420135498049	-840.6073608398438	-0.0	-0.0	-0.0	-0.0	-0.0	-0.0	-0.0	-0.0	-0.0	-0.0	-0.0	-0.0
0.2575	-0.0	-0.0	-0.0	22.470928192138672	-10.081846237182615	-839.535400390625	-0.0	-0.0	-0.0	-0.0	-0.0	-0.0	-0.0	-0.0	-0.0	-0.0	-0.0	-0.0
0.258	-0.0	-0.0	-0.0	21.32474899291992	-9.81464385986328	-835.623779296875	-0.0	-0.0	-0.0	-0.0	-0.0	-0.0	-0.0	-0.0	-0.0	-0.0	-0.0	-0.0
0.2585	-0.0	-0.0	-0.0	20.240243911743164	-9.529932022094728	-830.720947265625	-0.0	-0.0	-0.0	-0.0	-0.0	-0.0	-0.0	-0.0	-0.0	-0.0	-0.0	-0.0
0.259	-0.0	-0.0	-0.0	19.46223258972168	-8.100120544433594	-826.5261840820312	-0.0	-0.0	-0.0	-0.0	-0.0	-0.0	-0.0	-0.0	-0.0	-0.0	-0.0	-0.0
0.2595	-0.0	-0.0	-0.0	18.994543075561523	-6.692069053649902	-825.0283203125	-0.0	-0.0	-0.0	-0.0	-0.0	-0.0	-0.0	-0.0	-0.0	-0.0	-0.0	-0.0
0.26	-0.0	-0.0	-0.0	19.08359909057617	-6.213075160980225	-824.9398193359375	-0.0	-0.0	-0.0	-0.0	-0.0	-0.0	-0.0	-0.0	-0.0	-0.0	-0.0	-0.0
0.2605	-0.0	-0.0	-0.0	19.354883193969727	-6.607029914855957	-825.366455078125	-0.0	-0.0	-0.0	-0.0	-0.0	-0.0	-0.0	-0.0	-0.0	-0.0	-0.0	-0.0
0.261	-0.0	-0.0	-0.0	19.02500915527344	-6.882331371307373	-823.9993286132812	-0.0	-0.0	-0.0	-0.0	-0.0	-0.0	-0.0	-0.0	-0.0	-0.0	-0.0	-0.0
0.2615	-0.0	-0.0	-0.0	19.09498786926269	-6.96397590637207	-823.9531860351562	-0.0	-0.0	-0.0	-0.0	-0.0	-0.0	-0.0	-0.0	-0.0	-0.0	-0.0	-0.0
0.262	-0.0	-0.0	-0.0	17.12441635131836	-7.146420955657959	-822.6669311523438	-0.0	-0.0	-0.0	-0.0	-0.0	-0.0	-0.0	-0.0	-0.0	-0.0	-0.0	-0.0
0.2625	-0.0	-0.0	-0.0	14.821179389953612	-7.029078006744385	-822.9254760742188	-0.0	-0.0	-0.0	-0.0	-0.0	-0.0	-0.0	-0.0	-0.0	-0.0	-0.0	-0.0
0.263	-0.0	-0.0	-0.0	13.717670440673828	-6.510665416717529	-824.75732421875	-0.0	-0.0	-0.0	-0.0	-0.0	-0.0	-0.0	-0.0	-0.0	-0.0	-0.0	-0.0
0.2635	-0.0	-0.0	-0.0	12.34475040435791	-7.215353965759277	-824.6585083007812	-0.0	-0.0	-0.0	-0.0	-0.0	-0.0	-0.0	-0.0	-0.0	-0.0	-0.0	-0.0
0.264	-0.0	-0.0	-0.0	12.48518180847168	-7.82204532623291	-826.0199584960938	-0.0	-0.0	-0.0	-0.0	-0.0	-0.0	-0.0	-0.0	-0.0	-0.0	-0.0	-0.0
0.2645	-0.0	-0.0	-0.0	12.833230018615724	-8.623863220214844	-828.8442993164062	-0.0	-0.0	-0.0	-0.0	-0.0	-0.0	-0.0	-0.0	-0.0	-0.0	-0.0	-0.0
0.265	-0.0	-0.0	-0.0	12.373706817626951	-8.913040161132812	-829.689697265625	-0.0	-0.0	-0.0	-0.0	-0.0	-0.0	-0.0	-0.0	-0.0	-0.0	-0.0	-0.0
0.2655	-0.0	-0.0	-0.0	10.91970157623291	-9.612587928771973	-834.2288818359375	-0.0	-0.0	-0.0	-0.0	-0.0	-0.0	-0.0	-0.0	-0.0	-0.0	-0.0	-0.0
0.266	-0.0	-0.0	-0.0	10.268356323242188	-9.301549911499023	-839.6627807617188	-0.0	-0.0	-0.0	-0.0	-0.0	-0.0	-0.0	-0.0	-0.0	-0.0	-0.0	-0.0
0.2665	-0.0	-0.0	-0.0	9.8178071975708	-8.744073867797852	-837.8717041015625	-0.0	-0.0	-0.0	-0.0	-0.0	-0.0	-0.0	-0.0	-0.0	-0.0	-0.0	-0.0
0.267	-0.0	-0.0	-0.0	9.315604209899902	-8.805070877075195	-843.003173828125	-0.0	-0.0	-0.0	-0.0	-0.0	-0.0	-0.0	-0.0	-0.0	-0.0	-0.0	-0.0
0.2675	-0.0	-0.0	-0.0	8.850947380065918	-9.16611385345459	-842.9459838867188	-0.0	-0.0	-0.0	-0.0	-0.0	-0.0	-0.0	-0.0	-0.0	-0.0	-0.0	-0.0
0.268	-0.0	-0.0	-0.0	8.69710636138916	-9.36354160308838	-844.8832397460938	-0.0	-0.0	-0.0	-0.0	-0.0	-0.0	-0.0	-0.0	-0.0	-0.0	-0.0	-0.0
0.2685	-0.0	-0.0	-0.0	8.807212829589844	-9.72997760772705	-848.69140625	-0.0	-0.0	-0.0	-0.0	-0.0	-0.0	-0.0	-0.0	-0.0	-0.0	-0.0	-0.0
0.269	-0.0	-0.0	-0.0	9.337169647216797	-9.873536109924316	-850.47705078125	-0.0	-0.0	-0.0	-0.0	-0.0	-0.0	-0.0	-0.0	-0.0	-0.0	-0.0	-0.0
0.2695	-0.0	-0.0	-0.0	9.247499465942385	-9.730396270751951	-849.5180053710938	-0.0	-0.0	-0.0	-0.0	-0.0	-0.0	-0.0	-0.0	-0.0	-0.0	-0.0	-0.0
0.27	-0.0	-0.0	-0.0	9.214322090148926	-9.521583557128906	-850.0838012695312	-0.0	-0.0	-0.0	-0.0	-0.0	-0.0	-0.0	-0.0	-0.0	-0.0	-0.0	-0.0
0.2705	-0.0	-0.0	-0.0	10.35362434387207	-8.587721824645996	-849.4801635742188	-0.0	-0.0	-0.0	-0.0	-0.0	-0.0	-0.0	-0.0	-0.0	-0.0	-0.0	-0.0
0.271	-0.0	-0.0	-0.0	11.927823066711426	-8.415164947509766	-849.7509765625	-0.0	-0.0	-0.0	-0.0	-0.0	-0.0	-0.0	-0.0	-0.0	-0.0	-0.0	-0.0
0.2715	-0.0	-0.0	-0.0	13.538637161254885	-8.478058815002441	-849.3554077148438	-0.0	-0.0	-0.0	-0.0	-0.0	-0.0	-0.0	-0.0	-0.0	-0.0	-0.0	-0.0
0.272	-0.0	-0.0	-0.0	14.525060653686523	-8.362020492553711	-848.3382568359375	-0.0	-0.0	-0.0	-0.0	-0.0	-0.0	-0.0	-0.0	-0.0	-0.0	-0.0	-0.0
0.2725	-0.0	-0.0	-0.0	15.377141952514648	-8.099898338317871	-842.9263916015625	-0.0	-0.0	-0.0	-0.0	-0.0	-0.0	-0.0	-0.0	-0.0	-0.0	-0.0	-0.0
0.273	-0.0	-0.0	-0.0	15.483390808105469	-7.147074699401856	-842.6214599609375	-0.0	-0.0	-0.0	-0.0	-0.0	-0.0	-0.0	-0.0	-0.0	-0.0	-0.0	-0.0
0.2735	-0.0	-0.0	-0.0	15.712307929992676	-5.994232654571533	-840.5459594726562	-0.0	-0.0	-0.0	-0.0	-0.0	-0.0	-0.0	-0.0	-0.0	-0.0	-0.0	-0.0
0.274	-0.0	-0.0	-0.0	16.420425415039062	-5.848483085632324	-839.2006225585938	-0.0	-0.0	-0.0	-0.0	-0.0	-0.0	-0.0	-0.0	-0.0	-0.0	-0.0	-0.0
0.2745	-0.0	-0.0	-0.0	17.056516647338867	-6.221834659576416	-839.3944702148438	-0.0	-0.0	-0.0	-0.0	-0.0	-0.0	-0.0	-0.0	-0.0	-0.0	-0.0	-0.0
0.275	-0.0	-0.0	-0.0	16.86078643798828	-7.446103096008301	-837.7890625	-0.0	-0.0	-0.0	-0.0	-0.0	-0.0	-0.0	-0.0	-0.0	-0.0	-0.0	-0.0
0.2755	-0.0	-0.0	-0.0	15.010979652404783	-7.878864288330078	-836.7066040039062	-0.0	-0.0	-0.0	-0.0	-0.0	-0.0	-0.0	-0.0	-0.0	-0.0	-0.0	-0.0
0.276	-0.0	-0.0	-0.0	13.060619354248049	-9.085325241088867	-836.8944091796875	-0.0	-0.0	-0.0	-0.0	-0.0	-0.0	-0.0	-0.0	-0.0	-0.0	-0.0	-0.0
0.2765	-0.0	-0.0	-0.0	12.150785446166992	-9.727307319641112	-835.01318359375	-0.0	-0.0	-0.0	-0.0	-0.0	-0.0	-0.0	-0.0	-0.0	-0.0	-0.0	-0.0
0.277	-0.0	-0.0	-0.0	10.723608016967772	-11.046059608459473	-838.0475463867188	-0.0	-0.0	-0.0	-0.0	-0.0	-0.0	-0.0	-0.0	-0.0	-0.0	-0.0	-0.0
0.2775	-0.0	-0.0	-0.0	10.502073287963867	-12.80384635925293	-838.0223999023438	-0.0	-0.0	-0.0	-0.0	-0.0	-0.0	-0.0	-0.0	-0.0	-0.0	-0.0	-0.0
0.278	-0.0	-0.0	-0.0	8.487506866455078	-13.624454498291016	-837.6932983398438	-0.0	-0.0	-0.0	-0.0	-0.0	-0.0	-0.0	-0.0	-0.0	-0.0	-0.0	-0.0
0.2785	-0.0	-0.0	-0.0	6.486471176147461	-13.643277168273926	-839.4585571289062	-0.0	-0.0	-0.0	-0.0	-0.0	-0.0	-0.0	-0.0	-0.0	-0.0	-0.0	-0.0
0.279	-0.0	-0.0	-0.0	5.053417682647705	-13.764467239379885	-837.1632690429688	-0.0	-0.0	-0.0	-0.0	-0.0	-0.0	-0.0	-0.0	-0.0	-0.0	-0.0	-0.0
0.2795	-0.0	-0.0	-0.0	3.657630920410156	-14.60446548461914	-838.8023681640625	-0.0	-0.0	-0.0	-0.0	-0.0	-0.0	-0.0	-0.0	-0.0	-0.0	-0.0	-0.0
0.28	-0.0	-0.0	-0.0	2.4913508892059326	-14.584698677062988	-840.671875	-0.0	-0.0	-0.0	-0.0	-0.0	-0.0	-0.0	-0.0	-0.0	-0.0	-0.0	-0.0
